# xmcd CD database file
#
# Track frame offsets:
#	150
#	42472
#	76232
#	90492
#	104800
#	163372
#	197437
#	240955
#	244297
#	274727
#
# Disc length: 4104 seconds
#
# Revision: 3
# Processed by: cddbd v1.5.2PL0 Copyright (c) Steve Scherf et al.
# Submitted via: CDex 1.70beta2
#
DISCID=8210060a
DTITLE=渋さ知らズ - 渋全
DYEAR=2006
DGENRE=Jazz
TTITLE0=ニューゲート
TTITLE1=渚の男
TTITLE2=阿呆の王
TTITLE3=すてきち
TTITLE4=校庭
TTITLE5=火男
TTITLE6=Pチャン
TTITLE7=ワシントンポストマーチ
TTITLE8=悪漢
TTITLE9=ひこーき
EXTD=YEAR: 2006
EXTT0=
EXTT1=
EXTT2=
EXTT3=
EXTT4=
EXTT5=
EXTT6=
EXTT7=
EXTT8=
EXTT9=
PLAYORDER=
